<?xml version="1.0" standalone="no"?>
<!DOCTYPE svg PUBLIC "-//W3C//DTD SVG 20010904//EN"
 "http://www.w3.org/TR/2001/REC-SVG-20010904/DTD/svg10.dtd">
<svg version="1.0" xmlns="http://www.w3.org/2000/svg"
 width="154.000000pt" height="154.000000pt" viewBox="0 0 154.000000 154.000000"
 preserveAspectRatio="xMidYMid meet">
<metadata>
Created by potrace 1.14, written by Peter Selinger 2001-2017
</metadata>
<g transform="translate(0.000000,154.000000) scale(0.100000,-0.100000)"
fill="#000000" stroke="none">
<path d="M1395 1233 c-87 -25 -102 -26 -410 -30 -176 -2 -324 -8 -329 -13 -4
-4 -8 -120 -8 -256 0 -215 2 -249 15 -259 19 -14 614 -15 635 -2 8 5 12 34 12
81 0 66 2 74 23 83 77 36 114 106 61 119 l-25 6 33 20 c69 42 111 98 73 98
-19 0 -20 16 -1 27 22 13 54 75 58 113 3 31 0 35 -22 37 -14 1 -65 -9 -115
-24z m105 -31 c-15 -51 -22 -60 -58 -86 -36 -24 -148 -64 -286 -101 -59 -16
-70 -23 -81 -49 -23 -54 -72 -112 -109 -130 -66 -31 -69 -22 -31 93 45 132 61
154 133 181 66 25 387 115 419 118 19 1 21 -2 13 -26z m-77 -170 c-17 -15 -58
-37 -90 -49 -64 -25 -233 -67 -239 -60 -8 7 19 57 30 58 28 2 63 11 158 43 57
19 119 34 138 35 l35 0 -32 -27z m-54 -96 l34 -12 -39 -32 c-55 -46 -123 -64
-293 -78 l-83 -6 38 39 c33 34 49 42 104 52 36 6 94 20 130 30 77 23 67 22
109 7z"/>
<path d="M310 1063 c-47 -33 -300 -294 -301 -311 -1 -9 -2 -71 -3 -137 -2
-120 5 -163 27 -177 7 -4 57 -8 112 -8 l100 0 17 29 c20 35 85 71 129 71 41 0
102 -35 123 -71 l17 -29 128 0 128 0 30 38 c36 45 94 68 147 58 39 -8 106 -59
106 -82 0 -11 22 -14 108 -14 136 0 142 5 142 107 0 112 20 106 -363 107 -177
1 -328 5 -334 9 -10 6 -13 57 -13 198 0 241 8 229 -158 229 -95 0 -122 -3
-142 -17z"/>
<path d="M380 503 c-53 -8 -79 -25 -100 -67 -24 -50 -25 -66 -6 -111 37 -89
160 -100 215 -19 28 41 30 101 5 140 -21 31 -81 61 -114 57z m50 -83 c24 -24
26 -63 4 -84 -8 -9 -18 -16 -22 -17 -4 0 -15 -2 -24 -4 -22 -4 -54 23 -62 51
-9 29 28 74 60 74 13 0 33 -9 44 -20z"/>
<path d="M894 494 c-21 -8 -40 -14 -41 -14 -12 -1 -43 -76 -43 -103 0 -52 17
-82 61 -106 46 -26 92 -25 132 2 121 82 29 269 -109 221z m81 -68 c26 -19 24
-74 -4 -97 -25 -20 -55 -17 -82 7 -56 51 24 135 86 90z"/>
</g>
</svg>
